<?xml version="1.0" encoding="UTF-8" standalone="no"?>
<!-- Created with Inkscape (http://www.inkscape.org/) -->

<svg
   width="69.939606mm"
   height="89.126045mm"
   viewBox="0 0 69.939606 89.126045"
   version="1.1"
   id="svg37111"
   sodipodi:docname="blame.svg"
   inkscape:version="1.2 (dc2aeda, 2022-05-15)"
   xmlns:inkscape="http://www.inkscape.org/namespaces/inkscape"
   xmlns:sodipodi="http://sodipodi.sourceforge.net/DTD/sodipodi-0.dtd"
   xmlns="http://www.w3.org/2000/svg"
   xmlns:svg="http://www.w3.org/2000/svg">
  <sodipodi:namedview
     id="namedview1463"
     pagecolor="#ffffff"
     bordercolor="#000000"
     borderopacity="0.25"
     showgrid="false" />
  <defs
     id="defs37108" />
  <g
     id="layer1"
     transform="translate(-113.27597,-95.328344)">
    <ellipse
       style="fill:#41ead4;fill-opacity:1;stroke-width:0.264583"
       id="path37167"
       cx="135.78406"
       cy="118.13065"
       rx="22.508081"
       ry="22.802307" />
    <path
       style="fill:#41ead4;fill-opacity:1;stroke-width:0.264583"
       d="m 127.69291,137.6965 c 6.185,27.83618 8.58268,33.09146 -7.27415,46.75789 l 49.93653,-0.25876 c 0.59645,-31.61761 -6.9126,-29.24129 -26.4801,-50.32403 z"
       id="path38587" />
    <path
       style="fill:#41ead4;fill-opacity:1;stroke-width:0.264583"
       d="m 150.06082,141.50057 c 18.72021,-7.10524 19.26449,0.13967 25.35326,-19.3808 l 4.74105,1.08641 c 2.43113,22.61885 -3.52307,21.01323 -17.63333,31.74294 z"
       id="path38589" />
    <path
       style="fill:#41ead4;fill-opacity:1;stroke-width:0.264583"
       d="m 175.47609,122.88291 c -1.72004,-4.018 -1.61659,-4.05946 -9.83363,-5.34227 3.10621,-1.07445 7.26779,-1.57324 8.29956,-3.7792 0.0667,-2.0618 0.12328,-1.05035 -0.43299,-3.777 10.66186,-2.47074 10.03532,2.42188 9.4145,4.65967 -2.28028,6.77884 -2.30571,6.72711 -2.98949,9.43129 z"
       id="path38591" />
  </g>
</svg>
