<?xml version="1.0" encoding="UTF-8" standalone="no"?>
<svg
   viewBox="0 0 94.349997 105.15817"
   version="1.1"
   id="svg156"
   sodipodi:docname="eagerworks-logo.svg"
   width="94.349998"
   height="105.15817"
   xmlns:inkscape="http://www.inkscape.org/namespaces/inkscape"
   xmlns:sodipodi="http://sodipodi.sourceforge.net/DTD/sodipodi-0.dtd"
   xmlns="http://www.w3.org/2000/svg"
   xmlns:svg="http://www.w3.org/2000/svg">
  <defs
     id="defs160" />
  <g
     id="Capa_2"
     transform="translate(0,0.00294937)">
      <path
         d="M 88.23,21.81 53.29,1.64 a 12.22,12.22 0 0 0 -12.24,0 L 6.12,21.81 A 12.24,12.24 0 0 0 0,32.41 v 40.34 a 12.24,12.24 0 0 0 6.12,10.6 l 34.93,20.17 a 12.27,12.27 0 0 0 12.24,0 L 88.23,83.35 a 12.26,12.26 0 0 0 6.12,-10.6 V 32.41 a 12.26,12.26 0 0 0 -6.12,-10.6 z m -35,48.77 21.61,-13.93 v 5.76 L 53.21,76.35 Z m 29.87,1 -29.89,18.6 V 84.42 L 83.08,65.81 Z M 83.1,43.9 53.21,62.51 V 56.74 L 83.08,38.13 Z"
         id="path132" />
  </g>
</svg>
