<?xml version="1.0" encoding="UTF-8" standalone="no"?>
<!-- Created with Inkscape (http://www.inkscape.org/) -->

<svg
   width="115.76776mm"
   height="43.475082mm"
   viewBox="0 0 115.76776 43.475082"
   version="1.1"
   id="svg18642"
   sodipodi:docname="leadering.svg"
   inkscape:version="1.2 (dc2aeda, 2022-05-15)"
   xmlns:inkscape="http://www.inkscape.org/namespaces/inkscape"
   xmlns:sodipodi="http://sodipodi.sourceforge.net/DTD/sodipodi-0.dtd"
   xmlns="http://www.w3.org/2000/svg"
   xmlns:svg="http://www.w3.org/2000/svg">
  <sodipodi:namedview
     id="namedview144"
     pagecolor="#ffffff"
     bordercolor="#000000"
     borderopacity="0.25"
     inkscape:showpageshadow="2"
     inkscape:pageopacity="0.0"
     inkscape:pagecheckerboard="0"
     inkscape:deskcolor="#d1d1d1"
     inkscape:document-units="mm"
     showgrid="false"
     inkscape:zoom="2.1346628"
     inkscape:cx="296.06549"
     inkscape:cy="44.269286"
     inkscape:window-width="1309"
     inkscape:window-height="775"
     inkscape:window-x="2170"
     inkscape:window-y="469"
     inkscape:window-maximized="0"
     inkscape:current-layer="layer1" />
  <defs
     id="defs18639" />
  <g
     id="layer1"
     transform="translate(-48.573274,-138.43835)">
    <ellipse
       style="fill:#41ead4;fill-opacity:1;stroke-width:0.151878"
       id="path25292"
       cx="205.54756"
       cy="48.530903"
       rx="6.6475415"
       ry="6.2672081"
       transform="rotate(30)" />
    <path
       style="fill:#f0c46b;fill-opacity:1;stroke-width:0.264583"
       d="m 81.413791,163.07024 76.681839,-10.31322 v 0.84932 L 81.292458,164.4049 Z"
       id="path35348" />
    <path
       style="fill:#41ead4;fill-opacity:1;stroke-width:0.151878"
       d="m 149.71613,149.43299 c -0.95016,7.76117 -5.82962,13.8679 -9.67628,20.40949 8.96704,-1.8434 9.86636,-13.81236 14.01915,-1.60182 3.74379,-9.20858 -1.97978,-9.67458 -1.78751,-10.76665 0.58348,-3.08883 3.31622,-3.34618 6.22385,-3.95591 -2.54255,-0.80992 -5.49724,-1.49619 -4.8971,-3.24891 z"
       id="path26074"
       sodipodi:nodetypes="ccccccc" />
    <ellipse
       style="fill:#8f41ea;fill-opacity:1;stroke-width:0.151878"
       id="path25292-9"
       cx="187.10779"
       cy="62.97839"
       rx="6.6475415"
       ry="6.2672081"
       transform="rotate(30)" />
    <path
       style="fill:#8f41ea;fill-opacity:1;stroke-width:0.151878"
       d="m 126.52307,152.725 c -0.95016,7.76117 -5.82962,13.8679 -9.67628,20.40949 8.96704,-1.8434 9.86636,-13.81236 14.01915,-1.60182 3.74379,-9.20858 -1.97978,-9.67458 -1.78751,-10.76665 0.58348,-3.08883 3.31622,-3.34618 6.22385,-3.95591 -2.54255,-0.80992 -5.49724,-1.49619 -4.8971,-3.24891 z"
       id="path26074-9"
       sodipodi:nodetypes="ccccccc" />
    <ellipse
       style="fill:#8f41ea;fill-opacity:1;stroke-width:0.151878"
       id="path25292-9-5"
       cx="170.53252"
       cy="75.804901"
       rx="6.6475415"
       ry="6.2672081"
       transform="rotate(30)" />
    <path
       style="fill:#8f41ea;fill-opacity:1;stroke-width:0.151878"
       d="m 105.75522,155.54546 c -0.95016,7.76117 -5.829623,13.8679 -9.676283,20.40949 8.967043,-1.8434 9.866363,-13.81236 14.019153,-1.60182 3.74379,-9.20858 -1.97978,-9.67458 -1.78751,-10.76665 0.58348,-3.08883 3.31622,-3.34618 6.22385,-3.95591 -2.54255,-0.80992 -5.49724,-1.49619 -4.8971,-3.24891 z"
       id="path26074-9-8"
       sodipodi:nodetypes="ccccccc" />
    <ellipse
       style="fill:#1e1503;fill-opacity:1;stroke-width:0.23318"
       id="path30746"
       cx="70.7537"
       cy="162.5127"
       rx="16.800728"
       ry="16.800726" />
  </g>
</svg>
