<?xml version="1.0" encoding="UTF-8" standalone="no"?>
<!-- Created with Inkscape (http://www.inkscape.org/) -->

<svg
   width="58.936203mm"
   height="85.334892mm"
   viewBox="0 0 58.936203 85.334892"
   version="1.1"
   id="svg40798"
   inkscape:version="1.2 (dc2aeda, 2022-05-15)"
   sodipodi:docname="self-learner.svg"
   xmlns:inkscape="http://www.inkscape.org/namespaces/inkscape"
   xmlns:sodipodi="http://sodipodi.sourceforge.net/DTD/sodipodi-0.dtd"
   xmlns="http://www.w3.org/2000/svg"
   xmlns:svg="http://www.w3.org/2000/svg">
  <sodipodi:namedview
     id="namedview40800"
     pagecolor="#ffffff"
     bordercolor="#000000"
     borderopacity="0.25"
     inkscape:showpageshadow="2"
     inkscape:pageopacity="0.0"
     inkscape:pagecheckerboard="0"
     inkscape:deskcolor="#d1d1d1"
     inkscape:document-units="mm"
     showgrid="false"
     inkscape:zoom="0.89812781"
     inkscape:cx="327.90433"
     inkscape:cy="544.46593"
     inkscape:window-width="1920"
     inkscape:window-height="1052"
     inkscape:window-x="0"
     inkscape:window-y="28"
     inkscape:window-maximized="0"
     inkscape:current-layer="layer1" />
  <defs
     id="defs40795" />
  <g
     inkscape:label="Layer 1"
     inkscape:groupmode="layer"
     id="layer1"
     transform="translate(-69.627336,-127.86373)">
    <ellipse
       style="fill:#12b4a7;fill-opacity:1;stroke-width:0.264583"
       id="path37167"
       cx="99.57399"
       cy="150.66603"
       rx="22.508081"
       ry="22.802307"
       inkscape:export-filename="path37168.svg"
       inkscape:export-xdpi="96"
       inkscape:export-ydpi="96" />
    <path
       style="fill:#6d6c59;fill-opacity:1;stroke-width:0.264583"
       d="m 108.66796,168.77929 c 12.71582,-0.32434 12.72473,-0.31617 13.41908,-0.72408 0.55195,-0.47642 0.57885,-0.45883 6.4695,-10.18957 l 0.007,22.73665 c -3.51598,4.65823 -3.53552,4.63911 -4.73782,5.25705 -0.92602,0.42533 -0.9432,0.41204 -12.65875,4.02029 z"
       id="path41934"
       sodipodi:nodetypes="ccccccc" />
    <path
       style="fill:#12b4a7;fill-opacity:1;stroke-width:0.264583"
       d="m 83.900523,166.44072 c -22.75796,24.09166 -12.81759,34.59818 -7.27415,46.7579 l 49.936527,-0.25876 c -40.60609,-21.8674 -21.98575,-25.67437 -26.4801,-50.32404 z"
       id="path38587"
       sodipodi:nodetypes="ccccc" />
    <path
       style="fill:#12b4a7;fill-opacity:1;stroke-width:0.264583"
       d="m 98.67255,171.42637 c 10.47088,10.61555 10.3911,10.46733 19.44535,9.48355 l -0.32287,5.64394 c -15.89161,9.25774 -14.23308,5.27739 -25.060411,2.54099 z"
       id="path38589"
       sodipodi:nodetypes="ccccc" />
    <path
       style="fill:#12b4a7;fill-opacity:1;stroke-width:0.264583"
       d="m 118.04808,180.94398 c 3.55837,-1.06005 3.81937,-0.52132 2.61471,-3.23211 3.94769,0.58302 3.06036,-0.32376 3.17415,-1.86673 2.64215,-1.16932 3.48922,-0.33637 4.41192,0.91491 -1.47592,4.10815 -2.40846,3.18687 -5.04374,5.19517 -1.77029,2.39292 -1.79572,2.36668 -5.43745,4.58637 z"
       id="path38591"
       sodipodi:nodetypes="ccccccc" />
  </g>
</svg>
