<?xml version="1.0" encoding="UTF-8" standalone="no"?>
<!-- Created with Inkscape (http://www.inkscape.org/) -->

<svg
   width="130.33194mm"
   height="94.372368mm"
   viewBox="0 0 130.33194 94.372368"
   version="1.1"
   id="svg5"
   inkscape:version="1.2 (dc2aeda, 2022-05-15)"
   sodipodi:docname="programming.svg"
   xmlns:inkscape="http://www.inkscape.org/namespaces/inkscape"
   xmlns:sodipodi="http://sodipodi.sourceforge.net/DTD/sodipodi-0.dtd"
   xmlns="http://www.w3.org/2000/svg"
   xmlns:svg="http://www.w3.org/2000/svg">
  <sodipodi:namedview
     id="namedview7"
     pagecolor="#ffffff"
     bordercolor="#000000"
     borderopacity="0.25"
     inkscape:showpageshadow="2"
     inkscape:pageopacity="0.0"
     inkscape:pagecheckerboard="0"
     inkscape:deskcolor="#d1d1d1"
     inkscape:document-units="mm"
     showgrid="false"
     inkscape:zoom="1.0042848"
     inkscape:cx="661.66492"
     inkscape:cy="357.46833"
     inkscape:window-width="1920"
     inkscape:window-height="1080"
     inkscape:window-x="0"
     inkscape:window-y="0"
     inkscape:window-maximized="0"
     inkscape:current-layer="layer1" />
  <defs
     id="defs2" />
  <g
     inkscape:label="Layer 1"
     inkscape:groupmode="layer"
     id="layer1"
     transform="translate(-67.057832,-49.762133)">
    <path
       style="fill:#122524;fill-opacity:1;stroke-width:0.264583"
       d="m 130.48737,49.76213 66.90241,22.945874 V 122.19368 L 131.86964,95.10096 Z"
       id="path10966"
       sodipodi:nodetypes="ccccc" />
    <path
       style="fill:#d8e924;fill-opacity:1;stroke-width:0.264583"
       d="m 138.44828,60.597974 48.71262,16.533329 v 3.041018 l -48.52513,-17.08624 z"
       id="path11087"
       sodipodi:nodetypes="ccccc" />
    <path
       style="fill:#e95724;fill-opacity:1;stroke-width:0.264583"
       d="m 132.63157,58.631624 5.04546,1.681816 v 2.377741 l -5.10345,-2.145765 z"
       id="path13627" />
    <path
       style="fill:#249fe9;fill-opacity:1;stroke-width:0.264583"
       d="m 132.80555,63.503092 14.7304,5.103445 v 2.261756 l -14.7304,-5.567397 z"
       id="path14655" />
    <path
       style="fill:#d7e924;fill-opacity:1;stroke-width:0.264583"
       d="m 147.94191,68.838513 23.54544,8.583065 v 2.377741 l -23.37146,-8.815041 z"
       id="path14657" />
    <path
       style="fill:#e924e2;fill-opacity:1;stroke-width:0.264583"
       d="m 172.29926,77.827536 2.49373,0.869905 v 2.493727 l -2.49373,-1.101879 z"
       id="path14659" />
    <path
       style="fill:#2495e9;fill-opacity:1;stroke-width:0.264583"
       d="m 135.41527,67.910614 15.6583,5.857362 v 1.56583 l -15.6583,-6.205326 z"
       id="path14661" />
    <path
       style="fill:#e95724;fill-opacity:1;stroke-width:0.264583"
       d="m 135.53126,70.114373 3.76959,1.623825 v 1.565828 l -3.82759,-1.855798 z"
       id="path14663" />
    <path
       style="fill:#cde924;fill-opacity:1;stroke-width:0.264583"
       d="m 140.34473,72.144154 19.77585,7.655165 -0.058,1.565831 -19.94983,-7.71316 z"
       id="path14665" />
    <path
       style="fill:#e9cd24;fill-opacity:1;stroke-width:0.264583"
       d="m 137.38706,82.177061 29.11283,12.06269 v 1.971783 L 137.27107,83.568909 Z"
       id="path14667" />
    <path
       style="fill:#1d1d1d;fill-opacity:1;stroke-width:0.264583"
       d="m 139.78737,111.8299 34.72425,17.09501 -12.82126,8.19137 -30.80664,-18.69768 z"
       id="path14762" />
    <path
       style="fill:#9f9f9f;fill-opacity:1;stroke-width:0.264583"
       d="m 139.21352,112.32729 34.14727,16.79661 -0.37909,0.1458 -34.14726,-16.7966 z"
       id="path18108" />
    <path
       style="fill:#9f9f9f;fill-opacity:1;stroke-width:0.264583"
       d="m 138.09153,113.36477 33.37437,16.70971 -0.18015,0.0901 -33.59957,-16.66467 z"
       id="path18510" />
    <path
       style="fill:#9f9f9f;fill-opacity:1;stroke-width:0.264583"
       d="m 136.78538,114.58084 33.01406,16.39443 -0.31528,0.2252 -33.05909,-16.43947 z"
       id="path18512" />
    <path
       style="fill:#9f9f9f;fill-opacity:1;stroke-width:0.264583"
       d="m 135.43419,115.34652 32.42854,16.84482 -0.58551,0.27024 -32.20334,-16.88987 z"
       id="path18514" />
    <path
       style="fill:#9f9f9f;fill-opacity:1;stroke-width:0.264583"
       d="m 134.26316,116.47251 31.03231,17.07002 -0.31527,0.27024 -31.25751,-17.25018 z"
       id="path18516" />
    <path
       style="fill:#9f9f9f;fill-opacity:1;stroke-width:0.264583"
       d="m 132.95701,117.32826 30.04144,17.79066 -0.36032,0.36031 -30.08647,-17.88073 z"
       id="path18518" />
    <path
       style="fill:#9f9f9f;fill-opacity:1;stroke-width:0.264583"
       d="m 173.31253,128.81337 -11.03471,6.80098 -30.49184,-17.79065 -0.27023,0.22519 30.71703,18.10594 11.39503,-7.1613 z"
       id="path18520" />
    <path
       style="fill:#9f9f9f;fill-opacity:1;stroke-width:0.264583"
       d="m 159.66552,134.26316 10.89959,-6.53074 -0.49544,-0.2252 -10.80951,6.30555 -2.52222,-1.39623 11.39503,-5.81011 -0.67559,-0.36032 -11.07976,5.94523 -2.61229,-1.48631 11.34998,-5.53987 -0.45039,-0.2252 -11.30495,5.53987 -2.11686,-1.17103 11.39502,-5.40475 -0.45039,-0.13512 -11.25991,5.26964 -1.89167,-1.08096 11.53015,-5.04444 -0.4504,-0.18015 -11.44006,5.08948 -1.53135,-0.9008 11.48511,-4.95436 -0.49544,-0.18016 -11.30495,4.90932 -1.44127,-0.76567 11.53015,-4.86428 -0.31528,-0.13512 -11.66526,4.90932 -0.49544,-0.40536 -0.85575,-0.49543 11.30495,-4.72916 -0.36032,-0.2252 -11.21487,4.7742 -1.44127,-0.90079 10.89959,-4.72916 -0.36031,-0.18016 -10.94463,4.68412 -1.71151,-0.99087 11.12479,-4.54901 -0.4504,-0.18016 -11.03471,4.41389 -1.17103,-0.58552 10.85456,-4.549 -0.4504,-0.2252 -10.94463,4.45893 -1.30615,-0.6756 10.35911,-4.549 -0.22519,-0.13512 -10.85456,4.36884 23.60077,13.78213 z"
       id="path18522" />
    <ellipse
       style="fill:#f5df76;fill-opacity:1;stroke-width:0.264583"
       id="path61"
       cx="107.47601"
       cy="104.97657"
       rx="37.491631"
       ry="39.157925" />
    <path
       style="fill:#662f08;fill-opacity:1;stroke-width:0.264583"
       d="m 73.53737,121.36431 c 27.92208,6.35849 56.95,-2.21166 56.95,-2.21166 0,0 -5.25268,-9.12305 -6.3585,-22.39295 -1.10583,-13.269902 13.2699,-16.310921 13.2699,-16.310921 0,0 -3.04101,-24.604611 -12.71699,-19.904854 -12.44367,6.044066 -49.485671,0.276456 -56.397079,27.369172 -4.609012,18.067323 5.252669,33.451213 5.252669,33.451213 z"
       id="path5993"
       sodipodi:nodetypes="ccscssc" />
  </g>
</svg>
