<svg xmlns="http://www.w3.org/2000/svg"><defs><font id="FiraCode" horiz-adv-x="1209"><font-face font-family="Fira Code Light" units-per-em="2000" panose-1="2 11 8 9 5 0 0 2 0 4" ascent="1980" descent="-644" alphabetic="0"/><glyph horiz-adv-x="1200"/><glyph unicode="!" horiz-adv-x="1200" d="m689 1377-17-923H521l-20 923h188ZM598 245q58 0 96-39t39-94q0-56-38-95t-97-40q-57 0-95 39t-38 96q0 55 38 94t95 39Z"/><glyph unicode="&quot;" horiz-adv-x="1200" d="m359 957-32 520h211l-31-520H359Zm334 0-30 520h210l-32-520H693Z"/><glyph unicode="#" horiz-adv-x="1200" d="m917 912-59-443h162V339H839L797 0H653l45 339H407L363 0H219l45 339H106v130h175l61 443H180v131h179l44 334h144l-48-334h294l44 334h144l-47-334h160V912H917ZM424 469h291l61 443H483l-59-443Z"/><glyph unicode="$" horiz-adv-x="1200" d="M691 1697v-301q120-13 213-58t155-103l-103-106q-58 54-124 86t-141 42V801q101-33 188-85t142-133 54-204q0-95-43-178T904 60 691-15v-291H556v285q-142 9-246 66T138 167l100 111q63-64 141-106t177-51v554q-175 58-270 149t-96 231q0 81 40 154t122 125 204 62v301h135Zm0-1069V130q203 41 203 247 0 84-44 144T691 628Zm-135 625q-82-14-134-62t-53-133q0-70 38-119t149-94v408Z"/><glyph unicode="%" horiz-adv-x="1200" d="m1009 1414 108-70L170-40 65 30l944 1384ZM872 511q-59 0-100-47t-41-153q0-97 40-151t101-54q60 0 99 49t40 156q0 108-39 154t-100 46Zm-540 768q-59 0-100-49t-41-151q0-98 40-151t101-54q60 0 99 49t40 156q0 108-39 154t-100 46Zm0 120q94 0 159-44t99-117 35-159q0-84-34-158T491 802t-159-46q-93 0-159 45T72 921t-35 158q0 87 35 159t101 117 159 44Zm540-767q94 0 159-44t99-118 35-159q0-85-34-158T1031 34 872-12q-93 0-159 45T612 152t-35 159q0 87 35 160t101 117 159 44Z"/><glyph unicode="&amp;" horiz-adv-x="1200" d="M558 1397q90 0 171-29t163-119l-101-92q-51 58-105 86t-130 28q-105 0-158-56t-53-146q0-61 33-113t89-85 124-32h556V707H968V163q-30-39-82-82T751 8 553-23q-156 0-254 60T154 191t-47 198q0 155 81 254t233 130v6q-91 21-143 65t-75 103-23 121q0 89 46 163t131 120 201 46Zm257-690H567q-104 0-169-48t-95-120-31-144q0-72 29-137t92-105 164-40q84 0 150 27t108 79v488Z"/><glyph unicode="'" horiz-adv-x="1200" d="m526 957-31 520h210l-31-520H526Z"/><glyph unicode="(" horiz-adv-x="1200" d="M425 700q0-156 27-279t80-226T665 0t188-188l-88-92Q603-147 488-8T311 302t-62 398q0 228 61 399t177 310 278 271l88-92q-108-96-188-188t-134-194-79-225-27-281Z"/><glyph unicode=")" horiz-adv-x="1200" d="M775 700q0 157-26 280t-80 225-133 194-189 189l88 92q163-132 278-271t176-310 62-399q0-227-61-398T713-8 435-280l-88 92Q454-93 534-1t134 195 80 226 27 280Z"/><glyph unicode="*" horiz-adv-x="1200" d="m515 1157 13-405-380 135-51-158 387-114-247-320 134-98 229 334 229-334 134 98-247 320 387 114-51 158-380-135 13 405H515Z"/><glyph unicode="+" horiz-adv-x="1200" d="M676 1091V692h393V551H676V155H519v396H131v141h388v399h157Z"/><glyph unicode="," horiz-adv-x="1200" d="M600 329q69 0 115-47t47-113q0-36-8-73t-31-84L561-359H409l96 395q-30 22-47 57t-18 76q0 67 46 113t114 47Z"/><glyph unicode="-" horiz-adv-x="1200" d="M199 553v146h802V553H199Z"/><glyph unicode="." horiz-adv-x="1200" d="M423 154q0 49 23 88t62 63 90 24q51 0 91-23t63-63 23-89q0-49-23-89T689 1t-91-24q-50 0-89 23t-63 64-23 90Z"/><glyph unicode="/" horiz-adv-x="1200" d="m241-206-136 60 856 1765 134-66L241-206Z"/><glyph unicode="0" horiz-adv-x="1200" d="M600 1399q223 0 337-184t114-526q0-343-114-527T600-23q-222 0-336 184T149 689q0 342 114 526t337 184Zm0-135q-127 0-200-134t-73-441q0-155 16-265t49-178 85-101 123-32q86 0 147 59t94 186 33 331q0 206-28 333t-89 184-157 58Zm203-49 44-147-438-887-62 117 456 917Z"/><glyph unicode="1" horiz-adv-x="1200" d="M747 1377V40H579v1155l-316-192-73 120 410 254h147Zm288-1240V0H240v137h795Z"/><glyph unicode="2" horiz-adv-x="1200" d="M539 1399q130 0 222-50t143-137 50-197q0-95-33-185T816 640 626 419 337 143h649L965 0H146v137q156 149 265 261t181 196 112 154 57 131 16 130q0 116-65 183t-181 67q-102 0-167-35t-130-112l-116 90q82 100 182 148t239 49Z"/><glyph unicode="3" horiz-adv-x="1200" d="M537 1399q130 0 224-46t147-125 52-173q0-83-37-151t-98-112-134-58q81-6 152-45t116-112 45-180q0-119-60-214T777 32 526-23q-115 0-229 44T103 161l113 92q59-69 140-103t166-34q144 0 225 75t81 206q0 98-37 155t-102 81-146 25H427l21 133h81q67 0 126 25t98 80 38 135q0 114-76 174t-184 60q-90 0-157-31t-135-96l-93 103q88 83 187 120t204 38Z"/><glyph unicode="4" horiz-adv-x="1200" d="m548 1399 140-59-366-871h735V335H144v122l404 942Zm331-539V0H717l-1 437 23 423h140Z"/><glyph unicode="5" horiz-adv-x="1200" d="m974 1377-25-134H405V809q63 34 119 46t119 13q112 0 197-50t132-148 47-234q0-137-57-241T800 34 553-23q-124 0-221 44T154 143l104 100q63-64 135-95t162-32q136 0 212 82t76 243q0 111-33 175t-89 91-126 28q-61 0-108-11t-107-35H245v688h729Z"/><glyph unicode="6" horiz-adv-x="1200" d="M671 1399q80 0 147-20t125-60l-66-114q-47 29-99 43t-110 15q-110 0-187-73T365 983t-38-314l2-65q0-254 67-372t219-119q131 0 196 93t66 253q0 113-30 178t-86 94-128 28q-107 0-189-64T311 531l-4 148q68 116 155 167t197 51q107 0 195-47t141-143 54-244q0-152-58-260T834 36 616-23q-126 0-213 47T262 160t-78 213-25 278q0 228 60 396t175 260 277 92Z"/><glyph unicode="7" horiz-adv-x="1200" d="M461-19 304 29l537 1208H195v140h815v-129L461-19Z"/><glyph unicode="8" horiz-adv-x="1200" d="M1013 1049q0-100-62-173T774 739q135-56 215-149t80-221q0-112-58-201T848 28 596-23q-147 0-251 51T186 168t-55 198q0 127 75 214t201 145q-109 52-164 126t-56 189q0 95 38 162t100 112 134 64 141 21q75 0 148-20t134-63 95-109 36-158ZM892 367q0 93-47 147t-130 90-192 73q-57-26-106-66t-79-99-30-147q0-117 72-184t215-68q144 0 220 72t77 182Zm-539 671q0-79 36-124t105-73 161-60q96 55 144 111t48 151q0 104-64 165t-183 61q-117 0-182-61t-65-170Z"/><glyph unicode="9" horiz-adv-x="1200" d="M579 1397q150 0 250-69t149-195 50-299q0-208-42-352T854 240 626 77 294-42L255 86q196 55 326 130t197 191 72 288l3 96q1 172-28 275t-90 149-156 46q-134 0-203-82t-69-240q0-157 66-228t185-72q103 0 178 58t142 156l-1-146q-61-88-147-145t-203-57q-115 0-204 53T184 709t-51 236q0 147 60 248t161 152 225 52Z"/><glyph unicode=":" horiz-adv-x="1200" d="M437 140q0 65 46 113t115 48q70 0 116-48t47-113q0-68-46-115T598-23q-68 0-114 47t-47 116Zm0 721q0 46 21 82t58 57 82 22q70 0 116-47t47-114q0-66-46-114t-117-49q-68 0-114 48t-47 115Z"/><glyph unicode=";" horiz-adv-x="1200" d="M598 331q70 0 116-47t47-113q0-37-8-74t-32-85L559-360H407l96 397q-66 46-66 133 0 67 46 114t115 47Zm0 691q70 0 116-47t47-114q0-66-46-114t-117-49q-68 0-114 48t-47 115q0 46 21 82t58 57 82 22Z"/><glyph unicode="&lt;" horiz-adv-x="1200" d="m945 1188 81-129-706-433 706-437-90-123-760 475v172l769 475Z"/><glyph unicode="=" horiz-adv-x="1200" d="M989 884V739H211v145h778Zm0-379V359H211v146h778Z"/><glyph unicode="&gt;" horiz-adv-x="1200" d="m257 1188 769-475V541L267 66l-91 124 706 436-706 435 81 127Z"/><glyph unicode="?" horiz-adv-x="1200" d="M599 1399q123 0 211-44t136-114 47-150q0-96-36-156t-89-102-108-81-90-93-37-136v-69H464v79q0 97 35 161t89 109 106 83 89 84 36 111q0 85-68 131t-169 47q-71 0-146-34t-137-112l-120 88q88 103 193 150t227 48ZM553 245q58 0 97-39t39-94q0-56-39-95t-97-40q-56 0-94 39t-38 96q0 55 38 94t94 39Z"/><glyph unicode="@" horiz-adv-x="1200" d="M567 1399q155 0 261-46t174-128 104-187 51-226 14-243q0-252-23-418t-87-249-184-83q-62 0-107 30t-74 75-42 94-12 85h-8q-18-46-51-90t-88-74-134-30q-109 0-175 59T89 131 59 367q0 261 104 388t288 128q70 0 134-15t148-60V217q0-108 19-164t51-78 71-21q47 0 73 47t37 131 13 195 2 240q0 143-16 267t-61 219-130 147-223 53q-97 0-211-35t-243-149l-96 112q134 117 274 167t274 51ZM459 759q-137 0-187-99t-50-293q0-98 14-172t50-117 95-43q70 0 110 32t62 73 34 71v518q-31 16-61 23t-67 7Z"/><glyph unicode="A" horiz-adv-x="1200" d="M867 351H322L212 0H41l448 1377h222L1159 0H977L867 351ZM367 495h455l-226 736-229-736Z"/><glyph unicode="B" horiz-adv-x="1200" d="M896 387q0 104-40 160t-108 79-147 22H366V143h227q51 0 104 10t98 36 73 73 28 125Zm-55 634q0 117-72 166t-198 50H366V791h222q122 0 187 54t66 176Zm238-628q0-112-44-188T916 84 750 20 563 0H193v1377h339q91 0 177-16t156-56 112-107 42-168q0-89-36-150t-95-99-125-52q77-12 149-46t120-104 47-186Z"/><glyph unicode="C" horiz-adv-x="1200" d="M716 1399q135 0 226-34t173-100l-97-113q-65 55-137 78t-152 24q-113 0-209-53t-154-177-59-335q0-205 55-329t151-179 212-55q116 0 190 35t130 80l90-114q-63-61-164-105T723-23q-167 0-302 82T206 299t-79 390q0 232 80 390t215 239 294 81Z"/><glyph unicode="D" horiz-adv-x="1200" d="M920 695q0 180-38 288t-100 162-135 72-145 18H340V139h164q74 0 147 23t135 84 97 169 37 280Zm185 0q0-172-36-293T969 201 826 79 657 18 483 0H167v1377h294q121 0 235-27t207-99 147-207 55-349Z"/><glyph unicode="E" horiz-adv-x="1200" d="M425 1235V771h510V628H425V139h626V0H251v1377h782l-20-142H425Z"/><glyph unicode="F" horiz-adv-x="1200" d="M449 1235V753h540V613H449V0H277v1377h811l-21-142H449Z"/><glyph unicode="G" horiz-adv-x="1200" d="M627-23q-163 0-283 79T157 293 91 689q0 178 47 311t129 222 185 133 215 44q135 0 224-38t170-113l-105-109q-63 59-132 87t-156 28q-75 0-145-29t-125-94-88-174-33-268q0-199 41-324t123-183 202-59q72 0 136 17t126 49v420H634l-21 144h464V97q-93-50-198-85T627-23Z"/><glyph unicode="H" horiz-adv-x="1200" d="M860 0v653H340V0H167v1377h173V795h520v582h173V0H860Z"/><glyph unicode="I" horiz-adv-x="1200" d="M994 1377v-139H688V139h306V0H206v139h306v1099H206v139h788Z"/><glyph unicode="J" horiz-adv-x="1200" d="M993 1377V457q0-86-22-171t-76-155T750 19 523-23Q422-23 325 9t-180 93l77 115q90-56 164-75t135-20q144 0 221 92t78 253v768H412v142h581Z"/><glyph unicode="K" horiz-adv-x="1200" d="M383 0H210v1377h173V0Zm10 735 542 642h200L597 746 1173 0H957L393 735Z"/><glyph unicode="L" horiz-adv-x="1200" d="M271 0v1377h174V155h628L1053 0H271Z"/><glyph unicode="M" horiz-adv-x="1200" d="M1061 1377 1139 0H972l-43 719q-3 73-6 148t-4 144-1 123 0 84L686 247H512l-249 971q1-29 2-85t1-128 0-145-5-139L224 0H61l78 1377h242l223-943 213 943h244Z"/><glyph unicode="N" horiz-adv-x="1200" d="M790 0 305 1211q1-23 4-76t8-127 8-156 3-162V0H167v1377h235L895 161q-1 29-7 106t-11 188-5 233v689h161V0H790Z"/><glyph unicode="O" horiz-adv-x="1200" d="M1107 687q0-208-56-368T881 68 600-23q-167 0-280 88T150 313 93 685q0 209 56 370t170 252 281 92q168 0 281-89t169-249 57-374Zm-182 0q0 275-75 421t-250 146q-174 0-249-147t-76-422q0-275 78-418t247-144q174 0 249 144t76 420Z"/><glyph unicode="P" horiz-adv-x="1200" d="M928 952q0 107-42 169t-115 90-167 28H405V651h192q97 0 171 26t117 92 43 183Zm186 2q0-161-68-258T857 555t-276-44H405V0H231v1377h352q246 0 388-103t143-320Z"/><glyph unicode="Q" horiz-adv-x="1200" d="M1107 687q0-146-27-268t-89-215T822 53q97-19 165-57t116-103 82-167l-183-72q-41 106-93 179T778-57 580-19q-158 0-267 87T147 314 91 685q0 209 57 370t171 252 280 92q168 0 281-89t170-249 57-374Zm-180 0q0 276-76 421t-252 146q-174 0-251-146t-77-423q0-275 79-418t249-144q174 0 251 144t77 420Z"/><glyph unicode="R" horiz-adv-x="1200" d="M1075 991q0-103-44-180T910 684t-171-73L1147 0H939L563 591H377V0H203v1377h354q255 0 386-97t132-289Zm-186 0q0 133-76 190t-236 58H377V727h200q148 0 230 60t82 204Z"/><glyph unicode="S" horiz-adv-x="1200" d="M1073 381q0-118-59-209T843 29 570-23q-151 0-273 46T87 153l103 116q72-67 165-106t218-40q84 0 157 27t118 84 45 144q0 67-26 114t-92 83-184 72q-136 40-235 90T202 862t-55 183q0 103 57 183t157 125 232 46q143 0 248-40t192-117l-102-113q-74 66-159 95t-173 30q-75 0-137-22t-100-67-38-114q0-59 32-102t108-78 207-75q107-31 198-77t148-126 56-212Z"/><glyph unicode="T" horiz-adv-x="1200" d="M683 1228V0H510v1228H80v149h1039l-18-149H683Z"/><glyph unicode="U" horiz-adv-x="1200" d="M1055 1377V446q0-139-56-245T840 36 598-23q-142 0-243 59T199 202t-54 244v931h172V440q0-157 73-235t208-78q135 0 208 78t74 235v937h175Z"/><glyph unicode="V" horiz-adv-x="1200" d="m604 197 372 1180h175L690 0H510L49 1377h187L604 197Z"/><glyph unicode="W" horiz-adv-x="1200" d="M1191 1377 981 0H753L595 1039 436 0H203L9 1377h174L330 191l165 1026h213L865 191l165 1186h161Z"/><glyph unicode="X" horiz-adv-x="1200" d="M99 1377h199l302-529 303 529h188L700 743 1138 0H939L596 622 249 0H62l432 734-395 643Z"/><glyph unicode="Y" horiz-adv-x="1200" d="M688 531V0H512v529L47 1377h192l365-690 369 690h180L688 531Z"/><glyph unicode="Z" horiz-adv-x="1200" d="M334 150h721L1034 0H143v141l728 1088H215v148h842v-142L334 150Z"/><glyph unicode="[" horiz-adv-x="1200" d="M368-231v1862h501v-145H527V-88h342v-143H368Z"/><glyph unicode="\" horiz-adv-x="1200" d="m105 1553 134 66 856-1765-136-60-854 1759Z"/><glyph unicode="]" horiz-adv-x="1200" d="M832 1631V-231H331v142h342v1575H331v145h501Z"/><glyph unicode="^" horiz-adv-x="1200" d="m675 1679 378-625H870l-272 474-271-474H147l378 625h150Z"/><glyph unicode="_" horiz-adv-x="1200" d="M100-363v147h1000v-147H100Z"/><glyph unicode="`" horiz-adv-x="1200" d="m773 1244-404 186 90 143 369-236-55-93Z"/><glyph unicode="a" horiz-adv-x="1200" d="M955 230q0-63 21-92t65-43l-41-118q-68 9-119 43t-74 105Q750 52 665 15T477-23q-158 0-249 89t-91 236q0 163 127 250t367 87h155v88q0 114-66 161t-185 48q-52 0-122-12t-152-42l-44 127q97 36 182 51t162 15q197 0 295-91t99-249V230ZM520 105q78 0 149 39t117 110v271H634q-174 0-245-60t-72-161q0-98 50-148t153-51Z"/><glyph unicode="b" horiz-adv-x="1200" d="M369 916q58 76 133 117t167 42q141 0 228-68t127-191 40-289q0-159-48-283T876 48 647-23q-183 0-287 132L348 0H201v1477l168 21V916Zm238-803q132 0 203 102t71 313q0 138-28 229t-83 137-137 46q-88 0-154-52T369 771V249q41-62 103-99t135-37Z"/><glyph unicode="c" horiz-adv-x="1200" d="M677 122q79 0 147 26t127 66l82-110q-69-59-166-93T677-23q-157 0-267 67T241 234t-58 288q0 158 58 283t169 198 269 72q101 0 189-30t163-92l-82-112q-67 47-134 70t-138 24q-136 0-224-102t-88-311q0-140 40-228t111-130 161-42Z"/><glyph unicode="d" horiz-adv-x="1200" d="m831 1498 168-21V0H852l-16 139Q777 55 701 16T537-23q-137 0-226 69T179 238t-43 287q0 158 49 282t141 196 223 72q91 0 160-31t122-93v547ZM593 940q-132 0-203-103t-71-312q0-136 29-228t85-138 139-46q90 0 153 51t106 115v526q-43 64-104 99t-134 36Z"/><glyph unicode="e" horiz-adv-x="1200" d="M333 467q5-122 47-199t111-114 150-37q81 0 146 24t135 71l79-111q-74-58-168-91T639-23q-153 0-261 69T214 238t-57 287q0 160 57 284t160 195 243 71q133 0 229-62t147-178 52-276q0-27-1-50t-3-42H333Zm286 470q-117 0-195-83t-90-257h549q-3 169-74 254t-190 86Z"/><glyph unicode="f" horiz-adv-x="1200" d="M823 1498q85 0 154-15t131-42l-54-125q-51 22-108 33t-118 11q-110 0-165-43t-56-132V971h357l-18-132H607V0H439v839H188v132h251v210q0 98 50 169t138 109 196 39Z"/><glyph unicode="g" horiz-adv-x="1200" d="m1057 1165 52-158q-67-21-143-26t-165-5q91-42 137-108t46-157q0-104-47-185T802 399t-214-46q-53 0-88 5t-69 15q-24-16-39-44t-16-58q0-38 30-63t111-25h190q106 0 190-38t133-102 49-146q0-155-131-238t-372-83q-168 0-265 34T173-285t-42 178h152q0-61 24-101t87-59 181-20q116 0 189 19t109 58 36 96q0 75-68 113T671 37H483q-136 0-200 60t-65 138q0 51 29 99t87 85q-91 48-134 119t-43 172q0 107 53 189t148 130 219 47q133 1 216 11t142 31 122 47ZM577 953q-127 0-187-68t-61-175q0-107 62-176t190-69q112 0 170 65t59 181q0 119-58 180t-175 62Z"/><glyph unicode="h" horiz-adv-x="1200" d="M369 1493V909q62 83 152 124t184 42q154 0 225-82t71-228V0H833v761q0 95-44 138t-138 44q-60 0-114-27t-97-67-71-82V0H201v1475l168 18Z"/><glyph unicode="i" horiz-adv-x="1200" d="M734 1053V133h297V0H241v133h325v787H251v133h483Zm-134 493q56 0 89-34t34-83q0-51-33-85t-90-35q-53 0-87 34t-34 86q0 49 34 83t87 34Z"/><glyph unicode="j" horiz-adv-x="1200" d="M890 1053V169q0-176-79-294T582-316 219-424l-28 130q156 26 276 78T654-74t68 232v762H284v133h606Zm-157 493q56 0 90-34t34-83q0-51-34-85t-90-35q-54 0-87 34t-33 86q0 49 33 83t87 34Z"/><glyph unicode="k" horiz-adv-x="1200" d="M1083 1053 609 579 1138 0H917L399 575l466 478h218Zm-703 445V0H212v1477l168 21Z"/><glyph unicode="l" horiz-adv-x="1200" d="M611 1477V260q0-78 48-110t126-33q48 0 91 10t86 27l45-123Q964 10 901-6T757-23q-140 0-227 77t-87 215v1075H120v133h491Z"/><glyph unicode="m" horiz-adv-x="1200" d="M895 1075q51 0 97-22t77-85 30-184V0H943v757q0 99-12 143t-69 44q-47 0-93-29t-91-97V0H521v757q0 99-12 143t-69 44q-49 0-94-29t-90-97V0H101v1053h132l10-122q43 61 96 102t133 42q60 0 113-28t78-111q43 62 97 100t135 39Z"/><glyph unicode="n" horiz-adv-x="1200" d="M201 0v1053h143l13-146q64 81 160 124t188 44q155 0 225-82t71-228V0H833v641q0 108-12 174t-50 97-118 31q-62 0-116-27t-97-67-71-82V0H201Z"/><glyph unicode="o" horiz-adv-x="1200" d="M602 1075q149 0 249-67t151-191 51-290q0-161-52-285T849 48 600-23q-148 0-249 68T199 236t-52 289q0 163 52 287t153 193 250 70Zm0-137q-136 0-205-100t-70-313q0-208 68-309t205-101q136 0 204 101t69 311q0 210-68 310T602 938Z"/><glyph unicode="p" horiz-adv-x="1200" d="M672 1075q140 0 223-68t121-191 37-289q0-159-44-283T874 48 647-23Q474-23 369 99v-502l-168-21v1477h143l14-147q58 81 138 125t176 44Zm-40-135q-87 0-153-52T369 771V249q41-61 103-96t138-36q131 0 197 100t66 311q0 138-26 229t-79 137-136 46Z"/><glyph unicode="q" horiz-adv-x="1200" d="M548 1075q95 0 167-35t127-102l14 115h143V-424l-168 21v536Q774 52 698 15T535-23q-141 0-226 68T185 236t-38 289q0 158 45 282t136 196 220 72Zm42-135q-131 0-197-103t-66-312q0-136 27-227t80-136 136-45q88 0 153 49t108 113v526q-41 64-103 99t-138 36Z"/><glyph unicode="r" horiz-adv-x="1200" d="M211 0v129h164v795H211v129h292l31-249q61 130 148 201t230 71q44 0 78-6t71-17l-49-150q-33 9-60 13t-62 5q-121 0-208-86T543 575V129h214V0H211Zm688 697v229l17 127h145l-24-356H899Z"/><glyph unicode="s" horiz-adv-x="1200" d="M559 116q121 0 191 45t71 122q0 48-17 83t-72 63-166 56q-109 27-189 62t-125 93-45 148q0 89 50 153t141 99 209 35q127 0 221-33t161-83l-74-114q-60 41-132 67t-174 27q-124 0-176-38t-52-100q0-46 25-76t87-55 168-54q103-27 179-65t120-100 43-160q0-112-64-181T774 9 559-23q-143 0-243 41T147 119l96 111q62-51 142-82t174-32Z"/><glyph unicode="t" horiz-adv-x="1200" d="M1037 53Q983 17 906-3T755-23q-170 0-262 89t-92 229v628H159v130h242v239l168 20v-259h364l-20-130H569V297q0-88 46-134t155-46q59 0 109 14t93 36l65-114Z"/><glyph unicode="u" horiz-adv-x="1200" d="M369 1053V307q0-104 43-150t134-46q87 0 164 49t121 118v775h168V0H856l-14 142Q780 62 689 20T505-23q-153 0-228 81t-76 229v766h168Z"/><glyph unicode="v" horiz-adv-x="1200" d="M1079 1053 696 0H501L121 1053h178l305-900 301 900h174Z"/><glyph unicode="w" horiz-adv-x="1200" d="M981 0H743L607 773 459 0H227L35 1053h172l134-949 168 815h199l159-815 134 949h164L981 0Z"/><glyph unicode="x" horiz-adv-x="1200" d="M303 0H111l389 556-341 497h199l244-392 247 392h192L701 563 1089 0H883L595 452 303 0Z"/><glyph unicode="y" horiz-adv-x="1200" d="M1077 1053 707-7q-37-107-93-196T467-350t-230-73l-26 134q109 18 172 55t99 95T547 0h-56L123 1053h180l302-925 298 925h174Z"/><glyph unicode="z" horiz-adv-x="1200" d="M411 143h586L975 0H205v127l584 780H251v146h740V923L411 143Z"/><glyph unicode="{" horiz-adv-x="1200" d="M903 1671v-132q-73 0-132-14t-92-50-28-96l42-410q9-84-10-139t-63-86-114-44q70-12 115-41t63-84 9-144L651 21q-5-62 27-97t92-49 133-14v-132q-84 0-161 14t-136 50-89 95-20 153l40 380q8 69-12 116t-88 71-202 25v134q134 0 201 24t88 71 13 115l-40 382q-10 92 20 152t88 96 136 49 162 15Z"/><glyph unicode="|" horiz-adv-x="1200" d="M675 1800V-600H525v2400h150Z"/><glyph unicode="}" horiz-adv-x="1200" d="M297 1671q84 0 161-14t136-50 89-95 20-153l-40-382q-8-68 17-115t94-71 191-24V633q-122 0-190-24t-94-72-18-116l40-380q10-92-20-152t-88-96-136-49-162-15v132q73 0 132 14t93 49 27 97l-42 410q-9 89 10 143t68 84 131 40q-78 13-127 45t-70 87-12 139l42 410q6 61-27 96t-92 49-133 15v132Z"/><glyph unicode="~" horiz-adv-x="1200" d="M411 801q75 0 127-30t94-70 79-70 84-30q62 0 111 49t87 121l120-62q-29-57-71-115t-103-98-150-40q-70 0-121 30t-93 70-82 70-88 30q-65 0-112-48t-86-121L87 546q30 59 71 118t102 98 151 39Z"/><glyph horiz-adv-x="1200"/><glyph unicode="¡" horiz-adv-x="1200" d="m670 521 26-916H501l24 916h145Zm-72 476q56 0 95-39t40-95q0-55-39-94t-96-40q-57 0-95 39t-38 95q0 56 38 95t95 39Z"/><glyph unicode="¢" horiz-adv-x="1200" d="M746 1366v-300q64-7 124-31t118-71l-84-112q-66 49-120 66t-111 17q-131 0-205-102t-74-311q0-211 75-305t204-95q59 0 113 19t121 70l81-119q-56-48-117-72T746-13v-294H596v296Q406 13 309 154t-97 368q0 144 43 260t129 190 214 92v302h148Z"/><glyph unicode="£" horiz-adv-x="1200" d="M693 1399q108 0 199-40t159-132l-114-86q-50 62-107 89t-131 28q-107 0-162-61t-56-181V775h414V658H481V410q0-82-22-152T358 143h677L1015 0H149v136q80 26 114 64t42 90 8 112v256H149v117h164v256q0 106 45 189t131 131 204 48Z"/><glyph unicode="¤" horiz-adv-x="1200" d="m177 1219 178-180q51 32 113 50t134 18q70 0 132-16t111-52l178 178 108-108-174-176q34-49 54-112t20-137q0-75-21-138t-55-115l176-174-108-109-180 177q-49-33-110-49t-131-17q-71 0-133 16t-114 50L177 147 69 255l178 178q-33 51-52 114t-20 137q0 73 19 135t51 112L69 1111l108 108Zm425-248q-126 0-191-76t-66-211q0-135 65-211t192-76q126 0 190 76t65 211q0 134-64 210t-191 77Z"/><glyph unicode="¥" horiz-adv-x="1200" d="M1121 1377 733 691h239V573H688V402h284V285H688V0H511v285H231v117h280v171H231v118h233L79 1377h190l333-633h8l333 633h178Z"/><glyph unicode="¦" horiz-adv-x="1200" d="M674 1613V903H524v710h150Zm0-1106v-710H524v710h150Z"/><glyph unicode="§" horiz-adv-x="1200" d="M633 1399q110 0 189-29t146-78l-81-115q-59 41-119 63t-145 23q-85 0-138-39t-53-103q0-45 19-76t73-58 155-62q163-54 234-121t72-185q0-81-47-145T825 369q54-41 86-94t33-124q0-90-49-155T759-104t-200-35q-110 0-194 30T215-29l82 113q59-42 122-64T567-2q85 0 143 37t58 104q0 46-20 76t-73 58-154 60q-163 55-236 122t-73 186q0 81 48 145t114 105q-56 41-87 94t-32 122q0 91 51 156t138 101 189 35ZM477 833q-46-38-71-83t-25-88q0-58 27-91t102-64 213-82q46 38 71 83t25 90q0 55-27 88t-102 64-213 83Z"/><glyph unicode="¨" horiz-adv-x="1200" d="M393 1297q-48 0-79 30t-31 76q0 47 31 77t79 31q45 0 76-30t32-78q0-46-31-76t-77-30Zm412 0q-46 0-77 30t-31 76q0 47 31 77t77 31q47 0 78-30t32-78q0-46-31-76t-79-30Z"/><glyph unicode="©" horiz-adv-x="1200" d="M602 1493q172 0 292-83t183-225 64-314q0-172-63-313T894 333t-292-84q-172 0-293 83T123 557 59 871q0 172 64 313t185 225 294 84Zm7-242q77 0 129-19t105-59l-71-96q-39 32-78 46t-79 14q-79 0-133-61t-55-203q0-133 52-196t136-63q54 0 95 19t77 51l66-97q-42-36-100-64t-142-29q-142 0-234 97t-93 282q0 124 45 208t119 127 161 43Zm-7 142q-145 0-240-70t-143-188-48-264q0-144 47-262t143-188 241-70q144 0 239 69t143 188 47 263q0 145-47 263t-143 189-239 70Z"/><glyph unicode="ª" horiz-adv-x="1200" d="M580 1498q168 0 250-74t83-205V823q0-45 16-67t50-33l-38-109q-62 8-102 35t-63 84q-49-57-120-87t-148-31q-137 0-220 72t-84 192q0 134 115 204t319 70h117v60q0 84-52 120t-146 36q-41 0-105-11t-137-37l-46 117q88 34 165 47t146 13ZM997 151V0H211v151h786Zm-242 890H639q-140 0-203-40t-63-114q0-76 45-115t127-39q60 0 116 30t94 82v196Z"/><glyph unicode="«" horiz-adv-x="1200" d="m617 175-101-65-351 415v122l351 418 101-65-270-413 270-412Zm416 0-101-65-353 415v122l353 418 101-65-270-413 270-412Z"/><glyph unicode="¬" horiz-adv-x="1200" d="M969 695V269H815v283H231v143h738Z"/><glyph unicode="­" horiz-adv-x="1200" d="M288 553v146h624V553H288Z"/><glyph unicode="®" horiz-adv-x="1200" d="M600 1493q140 0 255-69t182-184 68-257q0-140-67-254T855 546t-255-68q-140 0-255 68T161 728 93 983q0 106 39 198t109 162 162 110 197 40Zm0-94q-115 0-206-56t-144-150-53-210q0-114 52-207t144-149 207-56q115 0 205 55t143 149 53 208q0 115-52 209t-143 151-206 56Zm-29-127q246 0 246-169 0-64-38-103t-96-55l172-236H723L571 926h-56V709H401v563h170Zm3-87h-59v-172h63q58 0 90 20t32 70q0 82-126 82Z"/><glyph unicode="¯" horiz-adv-x="1200" d="M868 1352H330v128h538v-128Z"/><glyph unicode="°" horiz-adv-x="1200" d="M455 1498q84 0 158-36t120-107 47-170q0-100-46-170T613 908t-158-37q-82 0-156 37t-121 107-47 172q0 99 47 168t121 106 156 37Zm0-119q-45 0-86-20t-66-63-26-109q0-67 25-110t67-65 86-21q70 0 124 47t54 147q0 98-54 146t-124 48Z"/><glyph unicode="±" horiz-adv-x="1200" d="M681 1075V777h288V636H681V325H519v311H231v141h288v298h162Zm288-929V0H231v146h738Z"/><glyph unicode="²" horiz-adv-x="1200" d="M871 1071q0-63-32-112t-106-97-200-111h357l-17-121H319v105q159 97 245 153t120 95 33 83q0 45-30 71t-88 26q-48 0-96-21t-94-76l-101 77q122 141 296 141 129 0 198-59t69-154Z"/><glyph unicode="³" horiz-adv-x="1200" d="M617 1284q122 0 191-48t69-130q0-53-32-86t-111-47q86-13 128-46t42-106q0-90-80-146t-227-57q-80 0-160 27t-142 90l92 76q46-41 102-60t113-20q77 0 114 26t37 68q0 50-35 72t-107 22h-93l15 84h68q61 0 94 18t34 64q0 88-122 88-55 0-107-18t-103-58l-78 83q69 57 144 80t154 24Z"/><glyph unicode="´" horiz-adv-x="1200" d="m767 1594 78-144-418-170-52 90 392 224Z"/><glyph unicode="µ" horiz-adv-x="1200" d="M967 1053V335q0-103 18-188t38-147L864-23q-16 26-29 78t-19 91Q769 69 691 23T534-23q-80 0-124 22t-83 78q7-53 12-97t6-77v-306l-168-21v1477h168V463q0-105 11-181t49-116 117-41q95 0 163 48t114 112v768h168Z"/><glyph unicode="¶" horiz-adv-x="1200" d="M1113 1377V-402l-154-22v1661H734V-402l-154-22V577q-164 1-274 54T140 775 85 974q0 112 57 203t171 146 280 54h520Z"/><glyph unicode="·" horiz-adv-x="1200" d="M423 684q0 49 23 88t62 63 90 24q51 0 91-23t63-63 23-89q0-49-23-89t-63-64-91-24q-50 0-89 23t-63 64-23 90Z"/><glyph unicode="¸" horiz-adv-x="1200" d="M681-281q0 54-46 70t-128 16l18 227h115v-146q99-8 142-57t43-110q0-66-34-109t-89-65-121-22q-60 0-115 13t-94 36l54 97q28-15 65-23t70-9q53 0 86 18t34 64Z"/><glyph unicode="¹" horiz-adv-x="1200" d="M661 630v478l-192-105-70 100 289 169h113V630H661Z"/><glyph unicode="º" horiz-adv-x="1200" d="M600 1498q125 0 216-54t140-153 50-234q0-130-50-230T815 671t-215-56q-125 0-216 55T242 824t-50 233q0 131 50 230t143 155 215 56ZM994 151V0H209v151h785ZM600 1369q-110 0-175-75t-65-237q0-161 65-237t175-77q110 0 174 76t64 238q0 161-64 236t-174 76Z"/><glyph unicode="»" horiz-adv-x="1200" d="m849 587-270 413 101 65 353-418V525L680 110l-101 65 270 412Zm-414 0-270 413 101 65 351-418V525L266 110l-101 65 270 412Z"/><glyph unicode="¼" horiz-adv-x="1200" d="M90 368 28 475l1070 512 60-107L90 368Zm170 368v478L68 1109l-70 100 289 169h114V736H260Zm832-624V0H947v112H590v96l271 454 123-51-230-380h192l13 171h133V231h111V112h-111Z"/><glyph unicode="½" horiz-adv-x="1200" d="M82 368 20 475l1070 512 60-107L82 368Zm172 368v478L62 1109l-70 100 289 169h114V736H254Zm936-295q0-63-32-112t-106-97-200-111h357L1192 0H638v105q160 97 246 153t119 95 34 83q0 45-31 71t-87 26q-49 0-97-21t-93-76l-102 77q122 141 297 141 128 0 197-59t69-154Z"/><glyph unicode="¾" horiz-adv-x="1200" d="M109 368 46 475l1070 512 61-107L109 368Zm207 1022q122 0 191-48t69-130q0-54-31-87t-112-46q86-13 128-46t43-107q0-89-80-145t-228-57q-80 0-160 27T-5 841l92 76q46-41 101-60t113-20q78 0 115 26t37 67q0 51-36 72t-106 22h-93l15 85h68q60 0 94 18t34 64q0 88-123 88-54 0-106-18t-104-58l-77 83q69 57 143 80t154 24Zm778-1278V0H949v112H592v96l271 454 123-51-229-380h192l12 171h133V231h111V112h-111Z"/><glyph unicode="¿" horiz-adv-x="1200" d="M647 997q57 0 96-39t40-95q0-55-39-94t-97-40q-56 0-94 39t-38 95q0 56 38 95t94 39Zm92-476v-83q0-97-35-160t-89-109-106-84-88-83-36-111q0-86 67-132t169-46q71 0 146 34t137 111l120-88q-87-102-193-150t-227-48q-122 0-210 44T258-269t-48 150q0 96 36 156t90 102 108 82 90 93 36 137v70h169Z"/><glyph unicode="À" horiz-adv-x="1200" d="M867 351H322L212 0H41l448 1377h222L1159 0H977L867 351ZM367 495h455l-226 736-229-736Zm95 1324 369-218-51-90-412 164 94 144Z"/><glyph unicode="Á" horiz-adv-x="1200" d="M867 351H322L212 0H41l448 1377h222L1159 0H977L867 351ZM367 495h455l-226 736-229-736Zm397 1317 76-144-427-157-45 90 396 211Z"/><glyph unicode="Â" horiz-adv-x="1200" d="M867 351H322L212 0H41l448 1377h222L1159 0H977L867 351ZM367 495h455l-226 736-229-736Zm291 1326 269-215-74-85-253 160-251-160-75 85 271 215h113Z"/><glyph unicode="Ã" horiz-adv-x="1200" d="M867 351H322L212 0H41l448 1377h222L1159 0H977L867 351ZM367 495h455l-226 736-229-736Zm350 1061q-53 0-91 24t-72 48-70 25q-34 0-58-23t-48-70l-107 54q35 71 88 119t126 49q56 0 93-24t70-48 69-24q30 0 54 21t52 67l106-54q-39-83-93-123t-119-41Z"/><glyph unicode="Ä" horiz-adv-x="1200" d="M867 351H322L212 0H41l448 1377h222L1159 0H977L867 351ZM367 495h455l-226 736-229-736Zm26 1041q-48 0-79 30t-31 76q0 47 31 77t79 31q45 0 76-30t32-78q0-46-31-76t-77-30Zm412 0q-46 0-77 30t-31 76q0 47 31 77t77 31q47 0 78-30t32-78q0-46-31-76t-79-30Z"/><glyph unicode="Å" horiz-adv-x="1200" d="M867 351H322L212 0H41l448 1377h222L1159 0H977L867 351ZM367 495h455l-226 736-229-736Zm233 1391q65 0 115-27t78-74 29-105q0-56-28-102t-79-74-115-27q-64 0-114 27t-79 73-29 103q0 58 28 104t79 74 115 28Zm0-92q-49 0-78-30t-30-84q0-52 29-82t79-31q51 0 79 30t29 83q0 53-28 83t-80 31Z"/><glyph unicode="Æ" horiz-adv-x="1200" d="M659 351H252L153 0H-24l404 1377h752l-21-141H640l102-467h372V628H769l103-487h343V0H732l-73 351ZM297 497h331l-147 743-184-743Z"/><glyph unicode="Ç" horiz-adv-x="1200" d="M716 1399q135 0 226-34t173-100l-97-113q-65 55-137 78t-152 24q-113 0-209-53t-154-177-59-335q0-205 55-329t151-179 212-55q116 0 190 35t130 80l90-114q-63-61-164-105T723-23q-167 0-302 82T206 299t-79 390q0 232 80 390t215 239 294 81Zm64-1680q0 54-46 70t-128 16l18 227h115v-146q99-8 142-57t43-110q0-66-34-109t-89-65-121-22q-60 0-115 13t-94 36l54 97q28-15 65-23t70-9q53 0 86 18t34 64Z"/><glyph unicode="È" horiz-adv-x="1200" d="M425 1235V771h510V628H425V139h626V0H251v1377h782l-20-142H425Zm79 584 369-218-51-90-412 164 94 144Z"/><glyph unicode="É" horiz-adv-x="1200" d="M425 1235V771h510V628H425V139h626V0H251v1377h782l-20-142H425Zm382 577 76-144-427-157-45 90 396 211Z"/><glyph unicode="Ê" horiz-adv-x="1200" d="M425 1235V771h510V628H425V139h626V0H251v1377h782l-20-142H425Zm275 586 269-215-74-85-253 160-251-160-75 85 271 215h113Z"/><glyph unicode="Ë" horiz-adv-x="1200" d="M425 1235V771h510V628H425V139h626V0H251v1377h782l-20-142H425Zm10 301q-48 0-79 30t-31 76q0 47 31 77t79 31q45 0 76-30t32-78q0-46-31-76t-77-30Zm412 0q-46 0-77 30t-31 76q0 47 31 77t77 31q47 0 78-30t32-78q0-46-31-76t-79-30Z"/><glyph unicode="Ì" horiz-adv-x="1200" d="M994 1377v-139H688V139h306V0H206v139h306v1099H206v139h788Zm-532 442 369-218-51-90-412 164 94 144Z"/><glyph unicode="Í" horiz-adv-x="1200" d="M994 1377v-139H688V139h306V0H206v139h306v1099H206v139h788Zm-230 435 76-144-427-157-45 90 396 211Z"/><glyph unicode="Î" horiz-adv-x="1200" d="M994 1377v-139H688V139h306V0H206v139h306v1099H206v139h788Zm-336 444 269-215-74-85-253 160-251-160-75 85 271 215h113Z"/><glyph unicode="Ï" horiz-adv-x="1200" d="M994 1377v-139H688V139h306V0H206v139h306v1099H206v139h788Zm-601 159q-48 0-79 30t-31 76q0 47 31 77t79 31q45 0 76-30t32-78q0-46-31-76t-77-30Zm412 0q-46 0-77 30t-31 76q0 47 31 77t77 31q47 0 78-30t32-78q0-46-31-76t-79-30Z"/><glyph unicode="Ð" horiz-adv-x="1200" d="M675 773V639H41v134h634Zm264-78q0 180-38 288t-100 162-135 72-145 18H359V139h164q75 0 148 23t134 84 97 169 37 280Zm185 0q0-172-36-293T988 201 845 79 676 18 502 0H186v1377h294q121 0 235-27t207-99 147-207 55-349Z"/><glyph unicode="Ñ" horiz-adv-x="1200" d="M790 0 305 1211q1-23 4-76t8-127 8-156 3-162V0H167v1377h235L895 161q-1 29-7 106t-11 188-5 233v689h161V0H790Zm180 1556q-53 0-91 24t-72 48-70 25q-34 0-58-23t-48-70l-107 54q35 71 88 119t126 49q56 0 93-24t70-48 69-24q30 0 54 21t52 67l106-54q-39-83-93-123t-119-41Z"/><glyph unicode="Ò" horiz-adv-x="1200" d="M1107 687q0-208-56-368T881 68 600-23q-167 0-280 88T150 313 93 685q0 209 56 370t170 252 281 92q168 0 281-89t169-249 57-374Zm-182 0q0 275-75 421t-250 146q-174 0-249-147t-76-422q0-275 78-418t247-144q174 0 249 144t76 420ZM462 1819l369-218-51-90-412 164 94 144Z"/><glyph unicode="Ó" horiz-adv-x="1200" d="M1107 687q0-208-56-368T881 68 600-23q-167 0-280 88T150 313 93 685q0 209 56 370t170 252 281 92q168 0 281-89t169-249 57-374Zm-182 0q0 275-75 421t-250 146q-174 0-249-147t-76-422q0-275 78-418t247-144q174 0 249 144t76 420ZM764 1812l76-144-427-157-45 90 396 211Z"/><glyph unicode="Ô" horiz-adv-x="1200" d="M1107 687q0-208-56-368T881 68 600-23q-167 0-280 88T150 313 93 685q0 209 56 370t170 252 281 92q168 0 281-89t169-249 57-374Zm-182 0q0 275-75 421t-250 146q-174 0-249-147t-76-422q0-275 78-418t247-144q174 0 249 144t76 420ZM658 1821l269-215-74-85-253 160-251-160-75 85 271 215h113Z"/><glyph unicode="Õ" horiz-adv-x="1200" d="M1107 687q0-208-56-368T881 68 600-23q-167 0-280 88T150 313 93 685q0 209 56 370t170 252 281 92q168 0 281-89t169-249 57-374Zm-182 0q0 275-75 421t-250 146q-174 0-249-147t-76-422q0-275 78-418t247-144q174 0 249 144t76 420Zm-208 869q-53 0-91 24t-72 48-70 25q-34 0-58-23t-48-70l-107 54q35 71 88 119t126 49q56 0 93-24t70-48 69-24q30 0 54 21t52 67l106-54q-39-83-93-123t-119-41Z"/><glyph unicode="Ö" horiz-adv-x="1200" d="M1107 687q0-208-56-368T881 68 600-23q-167 0-280 88T150 313 93 685q0 209 56 370t170 252 281 92q168 0 281-89t169-249 57-374Zm-182 0q0 275-75 421t-250 146q-174 0-249-147t-76-422q0-275 78-418t247-144q174 0 249 144t76 420Zm-532 849q-48 0-79 30t-31 76q0 47 31 77t79 31q45 0 76-30t32-78q0-46-31-76t-77-30Zm412 0q-46 0-77 30t-31 76q0 47 31 77t77 31q47 0 78-30t32-78q0-46-31-76t-79-30Z"/><glyph unicode="×" horiz-adv-x="1200" d="m845 967 105-108-245-245 245-245-105-105-245 245-245-245-105 105 245 245-245 245 105 108 245-248 245 248Z"/><glyph unicode="Ø" horiz-adv-x="1200" d="M600 1399q167 0 279-89t170-249 58-374q0-208-56-368T881 68 600-23q-167 0-279 88T151 313 93 685q0 209 56 370t170 252 281 92Zm193 207 151-39-79-254-49-90L493 103l-14-93-70-230-150 39 79 251 49 97 318 1100 22 110 66 229Zm-193-353q-173 0-248-147t-76-421q0-205 34-328t106-178 184-55q174 0 249 144t75 419q0 206-33 330t-104 180-187 56Z"/><glyph unicode="Ù" horiz-adv-x="1200" d="M1055 1377V446q0-139-56-245T840 36 598-23q-142 0-243 59T199 202t-54 244v931h172V440q0-157 73-235t208-78q135 0 208 78t74 235v937h175Zm-593 442 369-218-51-90-412 164 94 144Z"/><glyph unicode="Ú" horiz-adv-x="1200" d="M1055 1377V446q0-139-56-245T840 36 598-23q-142 0-243 59T199 202t-54 244v931h172V440q0-157 73-235t208-78q135 0 208 78t74 235v937h175Zm-291 435 76-144-427-157-45 90 396 211Z"/><glyph unicode="Û" horiz-adv-x="1200" d="M1055 1377V446q0-139-56-245T840 36 598-23q-142 0-243 59T199 202t-54 244v931h172V440q0-157 73-235t208-78q135 0 208 78t74 235v937h175Zm-397 444 269-215-74-85-253 160-251-160-75 85 271 215h113Z"/><glyph unicode="Ü" horiz-adv-x="1200" d="M1055 1377V446q0-139-56-245T840 36 598-23q-142 0-243 59T199 202t-54 244v931h172V440q0-157 73-235t208-78q135 0 208 78t74 235v937h175Zm-662 159q-48 0-79 30t-31 76q0 47 31 77t79 31q45 0 76-30t32-78q0-46-31-76t-77-30Zm412 0q-46 0-77 30t-31 76q0 47 31 77t77 31q47 0 78-30t32-78q0-46-31-76t-79-30Z"/><glyph unicode="Ý" horiz-adv-x="1200" d="M688 531V0H512v529L47 1377h192l365-690 369 690h180L688 531Zm83 1281 76-144-427-157-45 90 396 211Z"/><glyph unicode="Þ" horiz-adv-x="1200" d="M387 1377v-233h198q249 0 387-105t139-329q0-160-67-260T858 304t-274-47H387V0H215v1377h172Zm219-370H387V396h220q95 0 167 27t114 95 41 188q0 161-89 231t-234 70Z"/><glyph unicode="ß" horiz-adv-x="1200" d="M593 1498q104 0 182-36t122-102 44-149q0-59-23-101t-57-73-67-58-57-55-23-67q0-52 40-89t100-73 120-81 101-112 41-168q0-116-51-195T928 18 743-23q-79 0-142 17T485 46l68 115q37-21 83-34t91-14q101 0 159 52t59 160q0 64-29 109t-74 79-95 65-96 66-74 81-29 112q0 58 23 97t59 69 69 56 58 59 24 76q0 37-17 76t-58 66-114 27q-112 0-172-65t-60-220V0H192v1067q0 212 107 321t294 110Z"/><glyph unicode="à" horiz-adv-x="1200" d="M955 230q0-63 21-92t65-43l-41-118q-68 9-119 43t-74 105Q750 52 665 15T477-23q-158 0-249 89t-91 236q0 163 127 250t367 87h155v88q0 114-66 161t-185 48q-52 0-122-12t-152-42l-44 127q97 36 182 51t162 15q197 0 295-91t99-249V230ZM520 105q78 0 149 39t117 110v271H634q-174 0-245-60t-72-161q0-98 50-148t153-51Zm493 1139-404 186 90 143 369-236-55-93Z"/><glyph unicode="á" horiz-adv-x="1200" d="M955 230q0-63 21-92t65-43l-41-118q-68 9-119 43t-74 105Q750 52 665 15T477-23q-158 0-249 89t-91 236q0 163 127 250t367 87h155v88q0 114-66 161t-185 48q-52 0-122-12t-152-42l-44 127q97 36 182 51t162 15q197 0 295-91t99-249V230ZM520 105q78 0 149 39t117 110v271H634q-174 0-245-60t-72-161q0-98 50-148t153-51Zm487 1489 78-144-418-170-52 90 392 224Z"/><glyph unicode="â" horiz-adv-x="1200" d="M955 230q0-63 21-92t65-43l-41-118q-68 9-119 43t-74 105Q750 52 665 15T477-23q-158 0-249 89t-91 236q0 163 127 250t367 87h155v88q0 114-66 161t-185 48q-52 0-122-12t-152-42l-44 127q97 36 182 51t162 15q197 0 295-91t99-249V230ZM520 105q78 0 149 39t117 110v271H634q-174 0-245-60t-72-161q0-98 50-148t153-51Zm74 1153-80 83 271 238h113l269-238-76-83-249 181-248-181Z"/><glyph unicode="ã" horiz-adv-x="1200" d="M955 230q0-63 21-92t65-43l-41-118q-68 9-119 43t-74 105Q750 52 665 15T477-23q-158 0-249 89t-91 236q0 163 127 250t367 87h155v88q0 114-66 161t-185 48q-52 0-122-12t-152-42l-44 127q97 36 182 51t162 15q197 0 295-91t99-249V230ZM520 105q78 0 149 39t117 110v271H634q-174 0-245-60t-72-161q0-98 50-148t153-51Zm437 1212q-53 0-91 24t-72 48-70 25q-34 0-58-23t-48-70l-107 54q35 71 88 119t126 49q56 0 93-24t70-48 69-24q30 0 54 21t52 67l106-54q-39-83-93-123t-119-41Z"/><glyph unicode="ä" horiz-adv-x="1200" d="M955 230q0-63 21-92t65-43l-41-118q-68 9-119 43t-74 105Q750 52 665 15T477-23q-158 0-249 89t-91 236q0 163 127 250t367 87h155v88q0 114-66 161t-185 48q-52 0-122-12t-152-42l-44 127q97 36 182 51t162 15q197 0 295-91t99-249V230ZM520 105q78 0 149 39t117 110v271H634q-174 0-245-60t-72-161q0-98 50-148t153-51Zm113 1192q-48 0-79 30t-31 76q0 47 31 77t79 31q45 0 76-30t32-78q0-46-31-76t-77-30Zm412 0q-46 0-77 30t-31 76q0 47 31 77t77 31q47 0 78-30t32-78q0-46-31-76t-79-30Z"/><glyph unicode="å" horiz-adv-x="1200" d="M955 230q0-63 21-92t65-43l-41-118q-68 9-119 43t-74 105Q750 52 665 15T477-23q-158 0-249 89t-91 236q0 163 127 250t367 87h155v88q0 114-66 161t-185 48q-52 0-122-12t-152-42l-44 127q97 36 182 51t162 15q197 0 295-91t99-249V230ZM520 105q78 0 149 39t117 110v271H634q-174 0-245-60t-72-161q0-98 50-148t153-51Zm320 1542q65 0 115-27t78-74 29-105q0-56-28-102t-79-74-115-27q-64 0-114 27t-79 73-29 103q0 58 28 104t79 74 115 28Zm0-92q-49 0-78-30t-30-84q0-52 29-82t79-31q51 0 79 30t29 83q0 53-28 83t-80 31Z"/><glyph unicode="æ" horiz-adv-x="1200" d="M869 1075q180 0 262-138t82-378q0-55-4-94H671q14-179 67-263t159-84q59 0 103 20t95 59l78-115q-60-47-126-76T895-23q-106 0-179 47T587 169Q524 64 459 21T293-23Q154-23 71 66t-83 236q0 164 109 251t320 88h90v86q0 111-47 159t-135 49q-53 0-98-12t-110-42l-46 127q67 31 136 49t134 18q115 0 176-47t90-128q31 81 97 128t165 47ZM507 525h-84q-144 0-199-58t-55-156q0-100 40-152t108-52q67 0 116 47t99 140q-11 53-18 111t-7 120Zm357 411q-89 0-134-75t-59-264h378q-3 166-42 252t-143 87Z"/><glyph unicode="ç" horiz-adv-x="1200" d="M677 122q79 0 147 26t127 66l82-110q-69-59-166-93T677-23q-157 0-267 67T241 234t-58 288q0 158 58 283t169 198 269 72q101 0 189-30t163-92l-82-112q-67 47-134 70t-138 24q-136 0-224-102t-88-311q0-140 40-228t111-130 161-42Zm82-403q0 54-46 70t-128 16l18 227h115v-146q99-8 142-57t43-110q0-66-34-109t-89-65-121-22q-60 0-115 13t-94 36l54 97q28-15 65-23t70-9q53 0 86 18t34 64Z"/><glyph unicode="è" horiz-adv-x="1200" d="M333 467q5-122 47-199t111-114 150-37q81 0 146 24t135 71l79-111q-74-58-168-91T639-23q-153 0-261 69T214 238t-57 287q0 160 57 284t160 195 243 71q133 0 229-62t147-178 52-276q0-27-1-50t-3-42H333Zm286 470q-117 0-195-83t-90-257h549q-3 169-74 254t-190 86Zm175 307-404 186 90 143 369-236-55-93Z"/><glyph unicode="é" horiz-adv-x="1200" d="M333 467q5-122 47-199t111-114 150-37q81 0 146 24t135 71l79-111q-74-58-168-91T639-23q-153 0-261 69T214 238t-57 287q0 160 57 284t160 195 243 71q133 0 229-62t147-178 52-276q0-27-1-50t-3-42H333Zm286 470q-117 0-195-83t-90-257h549q-3 169-74 254t-190 86Zm169 657 78-144-418-170-52 90 392 224Z"/><glyph unicode="ê" horiz-adv-x="1200" d="M333 467q5-122 47-199t111-114 150-37q81 0 146 24t135 71l79-111q-74-58-168-91T639-23q-153 0-261 69T214 238t-57 287q0 160 57 284t160 195 243 71q133 0 229-62t147-178 52-276q0-27-1-50t-3-42H333Zm286 470q-117 0-195-83t-90-257h549q-3 169-74 254t-190 86Zm-244 321-80 83 271 238h113l269-238-76-83-249 181-248-181Z"/><glyph unicode="ë" horiz-adv-x="1200" d="M333 467q5-122 47-199t111-114 150-37q81 0 146 24t135 71l79-111q-74-58-168-91T639-23q-153 0-261 69T214 238t-57 287q0 160 57 284t160 195 243 71q133 0 229-62t147-178 52-276q0-27-1-50t-3-42H333Zm286 470q-117 0-195-83t-90-257h549q-3 169-74 254t-190 86Zm-205 360q-48 0-79 30t-31 76q0 47 31 77t79 31q45 0 76-30t32-78q0-46-31-76t-77-30Zm412 0q-46 0-77 30t-31 76q0 47 31 77t77 31q47 0 78-30t32-78q0-46-31-76t-79-30Z"/><glyph unicode="ì" horiz-adv-x="1200" d="M734 1053V133h297V0H241v133h325v787H251v133h483Zm42 191-404 186 90 143 369-236-55-93Z"/><glyph unicode="í" horiz-adv-x="1200" d="M734 1053V133h297V0H241v133h325v787H251v133h483Zm36 541 78-144-418-170-52 90 392 224Z"/><glyph unicode="î" horiz-adv-x="1200" d="M734 1053V133h297V0H241v133h325v787H251v133h483Zm-377 205-80 83 271 238h113l269-238-76-83-249 181-248-181Z"/><glyph unicode="ï" horiz-adv-x="1200" d="M734 1053V133h297V0H241v133h325v787H251v133h483Zm-338 244q-48 0-79 30t-31 76q0 47 31 77t79 31q45 0 76-30t32-78q0-46-31-76t-77-30Zm412 0q-46 0-77 30t-31 76q0 47 31 77t77 31q47 0 78-30t32-78q0-46-31-76t-79-30Z"/><glyph unicode="ð" horiz-adv-x="1200" d="m339 1124 162 169q-50 24-107 41t-127 32l37 132q88-19 163-42t136-57l139 148 101-88-124-128q178-123 262-320t84-484q0-168-59-292T841 44 590-23q-126 0-229 57T196 202t-62 268q0 148 58 258t156 172 211 62q102 0 180-36t136-102q-28 127-96 229t-164 172l-156-162-120 61Zm556-589q0 35-1 67t-5 63q-51 79-131 120t-177 42q-72 0-135-37T344 677t-39-198q0-179 79-272t203-94q141 0 224 107t84 315Z"/><glyph unicode="ñ" horiz-adv-x="1200" d="M201 0v1053h143l13-146q64 81 160 124t188 44q155 0 225-82t71-228V0H833v641q0 108-12 174t-50 97-118 31q-62 0-116-27t-97-67-71-82V0H201Zm516 1317q-53 0-91 24t-72 48-70 25q-34 0-58-23t-48-70l-107 54q35 71 88 119t126 49q56 0 93-24t70-48 69-24q30 0 54 21t52 67l106-54q-39-83-93-123t-119-41Z"/><glyph unicode="ò" horiz-adv-x="1200" d="M602 1075q149 0 249-67t151-191 51-290q0-161-52-285T849 48 600-23q-148 0-249 68T199 236t-52 289q0 163 52 287t153 193 250 70Zm0-137q-136 0-205-100t-70-313q0-208 68-309t205-101q136 0 204 101t69 311q0 210-68 310T602 938Zm171 306-404 186 90 143 369-236-55-93Z"/><glyph unicode="ó" horiz-adv-x="1200" d="M602 1075q149 0 249-67t151-191 51-290q0-161-52-285T849 48 600-23q-148 0-249 68T199 236t-52 289q0 163 52 287t153 193 250 70Zm0-137q-136 0-205-100t-70-313q0-208 68-309t205-101q136 0 204 101t69 311q0 210-68 310T602 938Zm165 656 78-144-418-170-52 90 392 224Z"/><glyph unicode="ô" horiz-adv-x="1200" d="M602 1075q149 0 249-67t151-191 51-290q0-161-52-285T849 48 600-23q-148 0-249 68T199 236t-52 289q0 163 52 287t153 193 250 70Zm0-137q-136 0-205-100t-70-313q0-208 68-309t205-101q136 0 204 101t69 311q0 210-68 310T602 938Zm-248 320-80 83 271 238h113l269-238-76-83-249 181-248-181Z"/><glyph unicode="õ" horiz-adv-x="1200" d="M602 1075q149 0 249-67t151-191 51-290q0-161-52-285T849 48 600-23q-148 0-249 68T199 236t-52 289q0 163 52 287t153 193 250 70Zm0-137q-136 0-205-100t-70-313q0-208 68-309t205-101q136 0 204 101t69 311q0 210-68 310T602 938Zm115 379q-53 0-91 24t-72 48-70 25q-34 0-58-23t-48-70l-107 54q35 71 88 119t126 49q56 0 93-24t70-48 69-24q30 0 54 21t52 67l106-54q-39-83-93-123t-119-41Z"/><glyph unicode="ö" horiz-adv-x="1200" d="M602 1075q149 0 249-67t151-191 51-290q0-161-52-285T849 48 600-23q-148 0-249 68T199 236t-52 289q0 163 52 287t153 193 250 70Zm0-137q-136 0-205-100t-70-313q0-208 68-309t205-101q136 0 204 101t69 311q0 210-68 310T602 938Zm-209 359q-48 0-79 30t-31 76q0 47 31 77t79 31q45 0 76-30t32-78q0-46-31-76t-77-30Zm412 0q-46 0-77 30t-31 76q0 47 31 77t77 31q47 0 78-30t32-78q0-46-31-76t-79-30Z"/><glyph unicode="÷" horiz-adv-x="1200" d="M969 695V552H231v143h738ZM600 365q56 0 95-38t40-94q0-57-39-96t-96-40q-56 0-95 39t-40 97q0 55 39 93t96 39Zm0 784q56 0 95-38t40-94q0-57-39-95t-96-38q-56 0-95 38t-40 95q0 55 39 93t96 39Z"/><glyph unicode="ø" horiz-adv-x="1200" d="M602 1075q144 0 244-67t153-191 54-290q0-161-52-285T849 48 600-23q-143 0-244 68T201 236t-54 289q0 163 52 287t153 193 250 70Zm174 233 141-41-89-267-45-73-252-816L504 1l-78-262-140 42 92 280 49 94 253 816 16 84 80 253ZM602 937q-135 0-204-100t-70-312q0-148 30-238t92-131 150-40q136 0 204 100t68 311q0 150-30 240t-91 130-149 40Z"/><glyph unicode="ù" horiz-adv-x="1200" d="M369 1053V307q0-104 43-150t134-46q87 0 164 49t121 118v775h168V0H856l-14 142Q780 62 689 20T505-23q-153 0-228 81t-76 229v766h168Zm404 191-404 186 90 143 369-236-55-93Z"/><glyph unicode="ú" horiz-adv-x="1200" d="M369 1053V307q0-104 43-150t134-46q87 0 164 49t121 118v775h168V0H856l-14 142Q780 62 689 20T505-23q-153 0-228 81t-76 229v766h168Zm398 541 78-144-418-170-52 90 392 224Z"/><glyph unicode="û" horiz-adv-x="1200" d="M369 1053V307q0-104 43-150t134-46q87 0 164 49t121 118v775h168V0H856l-14 142Q780 62 689 20T505-23q-153 0-228 81t-76 229v766h168Zm-15 205-80 83 271 238h113l269-238-76-83-249 181-248-181Z"/><glyph unicode="ü" horiz-adv-x="1200" d="M369 1053V307q0-104 43-150t134-46q87 0 164 49t121 118v775h168V0H856l-14 142Q780 62 689 20T505-23q-153 0-228 81t-76 229v766h168Zm24 244q-48 0-79 30t-31 76q0 47 31 77t79 31q45 0 76-30t32-78q0-46-31-76t-77-30Zm412 0q-46 0-77 30t-31 76q0 47 31 77t77 31q47 0 78-30t32-78q0-46-31-76t-79-30Z"/><glyph unicode="ý" horiz-adv-x="1200" d="M1077 1053 707-7q-37-107-93-196T467-350t-230-73l-26 134q109 18 172 55t99 95T547 0h-56L123 1053h180l302-925 298 925h174Zm-310 541 78-144-418-170-52 90 392 224Z"/><glyph unicode="þ" horiz-adv-x="1200" d="M369 1498V923q58 74 135 113t168 39q140 0 223-68t121-191 37-289q0-159-44-283T874 48 647-23Q474-23 369 99v-502l-168-21v1901l168 21Zm263-558q-87 0-153-52T369 771V249q41-61 103-96t138-36q131 0 197 100t66 311q0 138-26 229t-79 137-136 46Z"/><glyph unicode="ÿ" horiz-adv-x="1200" d="M1077 1053 707-7q-37-107-93-196T467-350t-230-73l-26 134q109 18 172 55t99 95T547 0h-56L123 1053h180l302-925 298 925h174Zm-684 244q-48 0-79 30t-31 76q0 47 31 77t79 31q45 0 76-30t32-78q0-46-31-76t-77-30Zm412 0q-46 0-77 30t-31 76q0 47 31 77t77 31q47 0 78-30t32-78q0-46-31-76t-79-30Z"/><glyph unicode="–" horiz-adv-x="1200" d="M65 553v146h1070V553H65Z"/><glyph unicode="—" horiz-adv-x="1200" d="M0 553v146h1200V553H0Z"/><glyph unicode="‘" horiz-adv-x="1200" d="M737 1101q0-62-44-104t-108-42q-63 0-106 42t-44 104q0 25 6 54t29 78l165 345h130l-82-367q25-17 39-46t15-64Z"/><glyph unicode="’" horiz-adv-x="1200" d="M461 1432q0 61 46 103t106 43q63 0 107-42t45-104q0-29-7-56t-30-76L563 955H433l82 367q-25 17-39 46t-15 64Z"/><glyph unicode="‚" horiz-adv-x="1200" d="M461 113q0 62 45 104t107 42q62 0 107-42t45-104q0-28-7-56t-30-76L563-364H433L514 3q-24 18-38 47t-15 63Z"/><glyph unicode="“" horiz-adv-x="1200" d="M521 1101q0-62-44-104t-108-42q-64 0-107 42t-43 104q0 25 6 54t29 78l162 345h133l-82-367q25-17 39-46t15-64Zm432 0q0-62-45-104t-107-42q-62 0-106 42t-44 104q0 25 6 54t29 78l165 345h130l-81-367q24-17 38-46t15-64Z"/><glyph unicode="”" horiz-adv-x="1200" d="M245 1429q0 62 45 104t107 43q62 0 107-42t45-105q0-27-8-54t-32-77L347 953H217l79 367q-23 18-37 47t-14 62Zm432 0q0 62 45 104t107 43q63 0 107-42t45-105q0-27-7-54t-30-77L780 953H649l81 367q-24 18-38 47t-15 62Z"/><glyph unicode="„" horiz-adv-x="1200" d="M247 113q0 62 45 104t107 42q62 0 107-42t45-104q0-28-7-56t-30-76L349-364H219L300 3q-24 18-38 47t-15 63Zm430 0q0 62 45 104t107 42q63 0 106-42t44-104q0-28-7-57t-28-75L780-364H649L730 3q-24 18-38 47t-15 63Z"/><glyph unicode="•" horiz-adv-x="1200" d="M600 441q-69 0-124 31t-87 87-32 125q0 70 32 124t87 86 124 31q70 0 125-31t86-87 32-125q0-69-31-124t-87-86-125-31Z"/><glyph unicode="‹" horiz-adv-x="1200" d="m823 173-100-63-346 415v122l346 418 100-63-267-415 267-414Z"/><glyph unicode="›" horiz-adv-x="1200" d="m644 587-267 415 100 63 346-418V525L477 110l-100 63 267 414Z"/></font>
</defs>
</svg>
